<svg xmlns="http://www.w3.org/2000/svg" version="1.1" xmlns:xlink="http://www.w3.org/1999/xlink" xmlns:svgjs="http://svgjs.dev/svgjs" viewBox="0 0 1422 800"><defs><filter id="uuunion-blur" x="-100%" y="-100%" width="400%" height="400%" color-interpolation-filters="sRGB">
        <feGaussianBlur in="SourceGraphic" stdDeviation="5 1.5" result="blur"></feGaussianBlur>
        <feDropShadow stdDeviation="13.53846153846154" in="blur" dx="11" dy="11" flood-color="hsl(332, 87%, 70%)" flood-opacity="0.74" x="0%" y="0%" width="100%" height="100%"></feDropShadow>
      </filter><filter id="uuunion-blur2" x="-100%" y="-100%" width="400%" height="400%" color-interpolation-filters="sRGB">
        <feGaussianBlur in="SourceGraphic" stdDeviation="5 1.5" result="blur"></feGaussianBlur>
        <feDropShadow stdDeviation="13.53846153846154" in="blur" dx="-11" dy="-11" flood-color="hsl(332, 87%, 70%)" flood-opacity="0.74" x="0%" y="0%" width="100%" height="100%"></feDropShadow>
      </filter><linearGradient gradientTransform="rotate(161, 0.5, 0.5)" x1="50%" y1="0%" x2="50%" y2="100%" id="uuunion-grad"><stop stop-color="hsl(184, 74%, 44%)" offset="10%"></stop><stop stop-color="hsl(332, 87%, 70%)" offset="90%"></stop></linearGradient><linearGradient gradientTransform="rotate(243, 0.5, 0.5)" x1="50%" y1="0%" x2="50%" y2="100%" id="uuunion-grad2"><stop stop-color="hsl(184, 74%, 44%)" offset="25%"></stop><stop stop-color="hsl(332, 87%, 70%)" offset="100%"></stop></linearGradient><linearGradient gradientTransform="rotate(333, 0.5, 0.5)" x1="50%" y1="0%" x2="50%" y2="100%" id="uuunion-grad3"><stop stop-color="hsl(184, 74%, 44%)" offset="0%"></stop><stop stop-color="hsl(332, 87%, 70%)" offset="75%"></stop></linearGradient></defs><path d="M-130.37 -88.05Q-117.41 -88.27 -104.45 -87.67 -91.5 -86.3 -78.54 -84.3 -65.58 -81.87 -52.62 -79.25 -39.66 -76.71 -26.7 -74.49 -13.75 -72.83 -0.79 -71.88 12.16 -71.74 25.12 -72.43 38.08 -73.87 51.03 -75.92 63.99 -78.39 76.95 -81.01 89.91 -83.53 102.87 -85.7 115.83 -87.29 128.78 -88.16 141.74 -88.22 154.7 -87.45 167.66 -85.93 180.62 -83.83 193.58 -81.34 206.53 -78.72 219.49 -76.22 232.45 -74.1 245.41 -72.57 258.37 -71.78 271.33 -71.82 284.28 -72.67 297.24 -74.25 310.2 -76.4 323.16 -78.92 336.12 -81.54 349.08 -84.01 362.03 -86.07 374.99 -87.53 387.95 -88.24 400.91 -88.12 413.87 -87.19 426.83 -85.55 439.78 -83.34 452.74 -80.8 465.7 -78.19 478.66 -75.75 491.62 -73.73 504.58 -72.35 517.53 -71.72 530.49 -71.92 543.45 -72.93 556.41 -74.65 569.37 -76.9 582.32 -79.45 595.28 -82.07 608.24 -84.47 621.2 -86.43 634.16 -87.74 647.12 -88.29 660.07 -88 673.03 -86.91 685.99 -85.13 698.95 -82.84 711.91 -80.27 724.87 -77.66 737.82 -75.29 750.78 -73.39 763.74 -72.15 776.7 -71.7 789.66 -72.07 802.62 -73.23 815.57 -75.07 828.53 -77.4 841.49 -79.99 854.45 -82.58 867.41 -84.92 880.37 -86.76 893.32 -87.92 906.28 -88.29 919.24 -87.84 932.2 -86.6 945.16 -84.7 958.12 -82.33 971.08 -79.73 984.03 -77.15 996.99 -74.86 1009.95 -73.08 1022.91 -71.99 1035.87 -71.7 1048.83 -72.24 1061.78 -73.56 1074.74 -75.52 1087.7 -77.92 1100.66 -80.53 1113.62 -83.09 1126.58 -85.34 1139.53 -87.05 1152.49 -88.06 1165.45 -88.27 1178.41 -87.64 1191.37 -86.26 1204.33 -84.24 1217.28 -81.81 1230.24 -79.19 1243.2 -76.65 1256.16 -74.45 1269.12 -72.8 1282.08 -71.87 1295.03 -71.75 1307.99 -72.45 1320.95 -73.91 1333.91 -75.98 1346.87 -78.45 1359.83 -81.07 1372.78 -83.58 1385.74 -85.74 1398.7 -87.32 1411.66 -88.17 1424.62 -88.21 1437.58 -87.42 1450.54 -85.89 1463.49 -83.77 1476.45 -81.28 1489.41 -78.65 1502.37 -76.16 1515.33 -74.06 1528.29 -72.54 1522.87 -57.26 1523.82 -41.97 1530.97 -26.69 1543.23 -11.4 1558.72 3.88 1575.05 19.16 1589.71 34.45 1600.45 49.74 1605.61 65.02 1604.4 80.31 1597.01 95.59 1584.57 110.88 1568.99 126.17 1552.68 141.45 1538.14 156.74 1527.61 172.02 1522.71 187.31 1524.18 202.6 1531.81 217.88 1544.42 233.17 1560.07 248.46 1576.36 263.74 1590.77 279.03 1601.1 294.31 1605.75 309.6 1604.01 324.89 1596.15 340.17 1583.37 355.46 1567.64 370.74 1551.38 386.03 1537.1 401.32 1526.98 416.6 1522.58 431.89 1524.59 447.17 1532.68 462.46 1545.63 477.75 1561.43 493.03 1577.65 508.32 1591.81 523.61 1601.72 538.89 1605.85 554.18 1603.58 569.46 1595.26 584.75 1582.15 600.04 1566.28 615.32 1550.1 630.61 1536.08 645.89 1526.38 661.18 1522.5 676.47 1525.04 691.75 1533.59 707.04 1546.86 722.33 1562.79 737.61 1578.93 752.9 1592.81 768.18 1602.29 783.47 1605.91 798.76 1603.11 814.04 1594.33 829.33 1580.91 844.61 1564.92 859.9 1548.82 875.19 1535.09 890.47 1525.83 905.76 1512.89 900.53 1499.96 893.24 1487.03 884.63 1474.09 875.56 1461.16 866.93 1448.23 859.61 1435.3 854.32 1422.36 851.6 1409.43 851.72 1396.5 854.66 1383.56 860.13 1370.63 867.58 1357.7 876.28 1344.77 885.35 1331.83 893.88 1318.9 901.03 1305.97 906.07 1293.03 908.51 1280.1 908.1 1267.17 904.88 1254.24 899.18 1241.3 891.56 1228.37 882.78 1215.44 873.73 1202.5 865.3 1189.57 858.34 1176.64 853.54 1163.71 851.39 1150.77 852.09 1137.84 855.58 1124.91 861.51 1111.97 869.29 1099.04 878.14 1086.11 887.17 1073.18 895.48 1060.24 902.25 1047.31 906.79 1034.38 908.66 1021.45 907.66 1008.51 903.9 995.58 897.75 982.65 889.83 969.71 880.92 956.78 871.92 943.85 863.73 930.92 857.16 917.98 852.88 905.05 851.3 892.12 852.59 879.18 856.62 866.25 862.98 853.32 871.04 840.39 880 827.45 888.96 814.52 897.02 801.59 903.38 788.65 907.41 775.72 908.69 762.79 907.11 749.86 902.82 736.92 896.25 723.99 888.06 711.06 879.06 698.12 870.15 685.19 862.23 672.26 856.08 659.33 852.32 646.39 851.33 633.46 853.2 620.53 857.75 607.6 864.52 594.66 872.83 581.73 881.87 568.8 890.71 555.86 898.48 542.93 904.41 530 907.9 517.07 908.6 504.13 906.44 491.2 901.64 478.27 894.68 465.33 886.25 452.4 877.2 439.47 868.42 426.54 860.8 413.6 855.1 400.67 851.89 387.74 851.48 374.81 853.92 361.87 858.97 348.94 866.12 336.01 874.65 323.07 883.72 310.14 892.42 297.21 899.87 284.28 905.34 271.34 908.28 258.41 908.39 245.48 905.66 232.54 900.37 219.61 893.05 206.68 884.42 193.75 875.35 180.81 866.74 167.88 859.46 154.95 854.23 142.02 851.57 129.08 851.75 116.15 854.76 103.22 860.28 90.28 867.78 77.35 876.5 64.42 885.56 51.49 894.07 38.55 901.17 25.62 906.16 12.69 908.53 -0.23 908.06 -13.17 904.77 -26.1 899.02 -39.03 891.36 -51.97 882.57 -64.9 873.52 -77.83 865.12 -90.76 858.2 -103.7 853.46 -116.63 851.37 -129.56 852.14 -132.61 837.45 -137.13 822.76 -142.42 808.07 -147.69 793.38 -152.1 778.69 -154.99 764 -155.91 749.31 -154.72 734.62 -151.6 719.93 -147.03 705.24 -141.72 690.55 -136.48 675.86 -132.12 661.17 -129.3 646.47 -128.47 631.78 -129.74 617.09 -132.93 602.4 -137.55 587.71 -142.87 573.02 -148.09 558.33 -152.4 543.64 -155.14 528.95 -155.89 514.26 -154.53 499.57 -151.27 484.88 -146.61 470.19 -141.27 455.5 -136.08 440.81 -131.82 426.11 -129.15 411.42 -128.49 396.73 -129.94 382.04 -133.27 367.35 -137.97 352.66 -143.32 337.97 -148.49 323.28 -152.7 308.59 -155.28 293.9 -155.86 279.21 -154.33 264.52 -150.93 249.83 -146.19 235.14 -140.83 220.44 -135.68 205.75 -131.53 191.06 -129.02 176.37 -128.54 161.68 -130.15 146.99 -133.61 132.3 -138.4 117.61 -143.76 102.92 -148.89 88.23 -152.98 73.54 -155.41 58.85 -155.81 44.16 -154.11 29.47 -150.58 14.78 -145.76 0.08 -140.38 -14.6 -135.29 -29.29 -131.25 -43.98 -128.9 -58.67 -128.59 -73.36 -130.37 -88.05" fill="url(#uuunion-grad)"></path><path d="M-130.38 -88.05Q-128.6 -73.36 -128.91 -58.67 -131.26 -43.98 -135.3 -29.29 -140.39 -14.6 -145.77 0.09 -150.59 14.78 -154.12 29.47 -155.82 44.16 -155.42 58.85 -152.99 73.54 -148.9 88.23 -143.77 102.92 -138.41 117.61 -133.62 132.3 -130.16 146.99 -128.54 161.68 -129.03 176.37 -131.54 191.06 -135.69 205.76 -140.84 220.45 -146.2 235.14 -150.94 249.83 -154.34 264.52 -155.87 279.21 -155.29 293.9 -152.71 308.59 -148.5 323.28 -143.33 337.97 -137.98 352.66 -133.28 367.35 -129.95 382.04 -112.69 382.2 -95.43 384.75 -86.8 387.29 -78.17 390.4 -69.54 393.94 -60.91 397.74 -52.28 401.65 -43.65 405.48 -35.02 409.07 -26.39 412.25 -17.76 414.89 -9.13 416.86 7.17 418.38 10.05 418.47 20.47 414.42 30.88 409.15 41.27 402.84 51.67 395.7 62.06 388.03 72.48 380.13 82.91 372.35 93.38 365 103.88 358.38 114.42 352.71 125.01 348.17 135.65 344.84 146.35 342.74 157.1 341.78 167.91 341.8 178.79 342.59 189.73 343.85 200.73 345.29 211.79 346.59 222.91 347.44 234.09 347.57 245.33 346.77 256.61 344.87 267.94 341.81 279.31 337.58 290.71 332.28 302.14 326.06 313.59 319.14 325.06 311.79 336.53 304.31 348.01 297 359.48 290.14 370.93 283.99 382.36 278.76 393.77 274.59 405.14 271.52 416.46 269.57 427.74 268.62 438.96 268.53 450.12 269.08 461.22 270 472.25 271.02 483.21 271.85 494.1 272.22 504.91 271.88 515.65 270.65 526.31 268.41 536.89 265.11 547.41 260.77 557.85 255.47 568.23 249.39 578.54 242.72 588.8 235.72 599 228.67 609.16 221.83 619.29 215.45 629.38 209.76 639.46 204.94 649.52 201.08 659.59 198.23 669.66 196.37 679.75 195.39 689.87 195.15 700.03 195.42 710.24 195.99 720.51 196.57 730.85 196.93 741.27 196.82 751.78 196.04 762.38 194.43 773.09 191.89 783.92 188.4 794.86 183.98 805.93 178.74 817.14 172.83 828.47 166.45 839.95 159.83 851.56 153.21 863.31 146.84 875.21 140.93 887.23 135.67 899.4 131.21 911.69 127.63 924.11 124.96 936.65 123.14 949.3 122.08 962.05 121.64 974.9 121.61 987.82 121.79 1000.82 121.94 1013.87 121.83 1026.96 121.26 1040.08 120.06 1053.22 118.1 1066.35 115.31 1079.47 111.67 1092.56 107.24 1105.6 102.1 1118.57 96.41 1131.46 90.34 1144.26 84.11 1156.94 77.94 1169.5 72.02 1181.92 66.56 1194.18 61.71 1206.28 57.58 1218.2 54.23 1229.93 51.67 1241.47 49.85 1252.8 48.68 1263.92 48 1274.82 47.64 1285.5 47.42 1295.96 47.12 1306.2 46.56 1316.22 45.55 1326.02 43.96 1335.6 41.7 1344.99 38.7 1354.17 34.96 1363.16 30.55 1371.98 25.56 1380.64 20.12 1389.14 14.39 1397.51 8.58 1405.76 2.85 1413.92 -2.61 1422 -7.64 1405.5 -24.86 1392.45 -42.07 1385.55 -59.29 1386.24 -76.5 1394.39 -93.72 1408.29 -110.93 1415.22 -137.96 1391.08 -137.9 1378.56 -136.06 1366.04 -134.54 1353.52 -133.5 1341 -133 1328.48 -133.11 1315.97 -133.8 1303.45 -135.02 1290.93 -136.66 1278.41 -138.59 1265.89 -140.64 1253.37 -142.64 1240.85 -144.4 1228.33 -145.8 1215.81 -146.69 1203.29 -147.02 1190.77 -146.75 1178.25 -145.9 1165.74 -144.54 1153.22 -142.8 1140.7 -140.82 1128.18 -138.77 1115.66 -136.82 1103.14 -135.15 1090.62 -133.88 1078.1 -133.14 1065.58 -132.99 1053.06 -133.43 1040.54 -134.43 1028.03 -135.91 1015.51 -137.73 1002.99 -139.75 990.47 -141.79 977.95 -143.68 965.43 -145.25 952.91 -146.37 940.39 -146.95 927.87 -146.94 915.35 -146.33 902.83 -145.18 890.31 -143.59 877.8 -141.7 865.28 -139.66 852.76 -137.64 840.24 -135.83 827.72 -134.37 815.2 -133.4 802.68 -132.98 790.16 -133.17 777.64 -133.93 765.12 -135.22 752.6 -136.91 740.09 -138.86 727.57 -140.92 715.05 -142.89 702.53 -144.62 690.01 -145.95 677.49 -146.77 664.97 -147.02 652.45 -146.66 639.93 -145.74 627.41 -144.33 614.89 -142.55 602.37 -140.55 589.86 -138.5 577.34 -136.58 564.82 -134.95 552.3 -133.75 539.78 -133.09 527.26 -133.01 514.74 -133.53 502.22 -134.6 489.7 -136.13 477.18 -138 464.66 -140.03 452.15 -142.06 439.63 -143.91 427.11 -145.43 414.59 -146.48 402.07 -146.98 389.55 -146.89 377.03 -146.21 364.51 -144.99 351.99 -143.35 339.47 -141.43 326.95 -139.38 314.43 -137.38 301.92 -135.61 289.4 -134.21 276.88 -133.31 264.36 -132.97 251.84 -133.24 239.32 -134.08 226.8 -135.42 214.28 -137.16 201.76 -139.14 189.24 -141.19 176.72 -143.14 164.21 -144.82 151.69 -146.09 139.17 -146.84 126.65 -147 114.13 -146.57 101.61 -145.58 89.09 -144.11 76.57 -142.29 64.05 -140.27 51.53 -138.23 39.01 -136.34 26.49 -134.76 13.98 -133.63 1.46 -133.04 -11.05 -133.05 -23.57 -133.65 -36.09 -134.78 -48.61 -136.37 -61.13 -138.26 -73.65 -140.3 -86.17 -142.32 -98.69 -144.13 -111.21 -145.6 -123.73 -146.58 -136.24 -147.01 -150.94 -139.21 -144.69 -117.1 -136.87 -102.59 -130.38 -88.05" fill="url(#uuunion-grad2)" filter="url(#uuunion-blur)"></path><path d="M1453.29 307.15Q1462.43 305.16 1471.56 303.84 1480.69 303.23 1489.82 303.37 1498.95 304.26 1508.08 305.84 1517.21 308.06 1526.34 310.81 1535.47 313.97 1544.61 317.4 1553.74 320.94 1562.87 324.45 1572 327.75 1581.13 330.71 1590.26 333.19 1599.39 335.08 1585.76 352.91 1567.64 370.74 1548.8 388.58 1533.17 406.41 1524 424.25 1523.21 442.08 1530.95 459.91 1545.63 477.75 1564.17 495.58 1582.72 513.41 1597.41 531.25 1605.17 549.08 1604.4 566.92 1595.26 584.75 1579.63 602.58 1560.8 620.42 1542.67 638.25 1529.02 656.09 1522.71 673.92 1525.04 691.75 1535.52 709.59 1551.99 727.42 1570.99 745.25 1588.58 763.09 1601.09 780.92 1605.91 798.76 1602.04 816.59 1590.28 834.42 1573.09 852.26 1554.05 870.09 1537.11 887.93 1525.83 905.76 1513.96 901.05 1502.1 894.56 1490.24 886.85 1478.38 878.56 1466.51 870.39 1454.65 863.03 1442.79 857.1 1430.92 853.1 1419.06 851.36 1407.2 852.03 1395.34 855.05 1383.47 860.17 1371.61 866.97 1359.75 874.85 1347.89 883.18 1336.02 891.23 1324.16 898.34 1312.3 903.9 1300.43 907.45 1288.57 908.69 1276.71 907.52 1264.85 904.03 1252.98 898.51 1241.12 891.44 1229.26 883.4 1217.4 875.08 1205.53 867.17 1193.67 860.34 1181.81 855.16 1169.94 852.08 1158.08 851.34 1146.22 853.02 1134.36 856.96 1122.49 862.85 1110.63 870.17 1098.77 878.33 1086.91 886.62 1075.04 894.36 1063.18 900.89 1051.32 905.66 1039.45 908.27 1027.59 908.5 1015.73 906.33 1003.87 901.94 992 895.71 980.14 888.15 968.28 879.91 956.42 871.68 944.55 864.14 932.69 857.94 920.83 853.6 908.97 851.48 897.1 851.75 885.24 854.41 873.38 859.22 861.51 865.78 849.65 873.53 837.79 881.83 825.93 889.97 814.06 897.28 802.2 903.13 790.34 907.03 778.48 908.66 766.61 907.87 754.75 904.74 742.89 899.53 731.02 892.67 719.16 884.74 707.3 876.42 695.44 868.39 683.57 861.35 671.71 855.87 659.85 852.42 647.99 851.3 636.12 852.59 624.26 856.18 612.4 861.78 600.53 868.92 588.67 876.98 576.81 885.3 564.95 893.17 553.08 899.94 541.22 905.02 529.36 908 517.5 908.62 505.63 906.83 493.77 902.79 481.91 896.82 470.04 889.44 458.18 881.26 446.32 872.98 434.46 865.29 422.59 858.83 410.73 854.16 398.87 851.66 387.01 851.54 375.14 853.83 363.28 858.31 351.42 864.62 339.55 872.22 327.69 880.48 315.83 888.7 303.97 896.18 292.1 902.3 280.24 906.55 268.38 908.56 256.52 908.16 244.65 905.4 232.79 900.49 220.93 893.87 209.07 886.07 197.2 877.76 185.34 869.64 173.48 862.39 161.61 856.63 149.75 852.83 137.89 851.31 126.03 852.22 114.16 855.45 102.3 860.76 90.44 867.68 78.58 875.64 66.71 883.97 54.85 891.96 42.99 898.94 31.12 904.33 12.72 903.07 4.46 888.26 2.36 878.05 0.04 867.84 -2.35 857.62 -4.66 847.41 -7.28 832.1 -7.34 827 4.73 819.43 17.08 809.63 29.68 797.93 42.51 784.82 55.55 770.92 68.74 756.91 82.06 743.46 95.45 731.21 108.89 720.66 122.32 712.17 135.71 705.93 149.03 701.9 162.25 699.87 175.33 699.45 188.28 700.1 201.08 701.23 213.73 702.16 226.23 702.29 238.6 701.05 250.86 698.02 263.04 692.94 275.16 685.74 287.26 676.51 299.36 665.54 311.51 653.26 323.72 640.22 336.03 627.01 348.47 614.26 361.04 602.52 373.77 592.26 386.65 583.81 399.68 577.36 412.85 572.88 426.15 570.22 439.54 569.02 453 568.83 466.49 569.11 479.97 569.27 493.4 568.77 506.74 567.11 519.93 563.89 532.95 558.87 545.75 551.97 558.31 543.26 570.61 532.99 582.62 521.52 594.35 509.33 605.79 496.94 616.97 484.9 627.9 473.71 638.63 463.79 649.2 455.44 659.65 448.83 670.05 443.96 680.47 440.7 690.96 438.75 701.59 437.74 712.43 437.17 723.55 436.56 735 435.4 746.83 433.26 759.07 429.8 771.77 424.79 784.93 418.13 794.63 415.54 804.36 412.06 814.11 407.81 823.89 402.95 833.7 397.68 843.54 392.21 853.41 386.77 863.31 381.58 873.23 376.84 883.19 372.76 893.17 369.46 903.19 367.07 913.23 365.63 923.31 365.16 933.42 365.6 943.56 366.88 953.72 368.85 963.92 371.33 974.15 374.13 984.41 377.03 994.7 379.81 1005.01 382.26 1015.36 384.18 1025.73 385.39 1036.13 385.78 1046.56 385.26 1057.02 383.79 1067.5 381.39 1078.01 378.12 1088.54 374.09 1099.1 369.45 1109.68 364.38 1120.28 359.09 1130.9 353.8 1141.54 348.71 1152.2 344.04 1162.88 339.96 1173.58 336.62 1184.29 334.14 1195.02 332.56 1205.76 331.92 1216.52 332.17 1227.28 333.23 1238.06 334.98 1248.84 337.25 1259.63 339.86 1270.42 342.59 1281.22 345.24 1292.02 347.6 1302.83 349.48 1313.63 350.71 1324.43 351.16 1335.23 350.74 1346.02 349.42 1356.8 347.2 1367.58 344.13 1378.34 340.32 1389.1 335.89 1399.84 331.03 1410.57 325.93 1421.28 320.79 1431.97 315.81 1442.64 311.21 1453.29 307.15" fill="url(#uuunion-grad3)" filter="url(#uuunion-blur2)"></path></svg>